<?xml version="1.0" encoding="UTF-8"?>
<svg id="Camada_1" data-name="Camada 1" xmlns="http://www.w3.org/2000/svg" viewBox="0 0 510 200">
  <defs>
    <style>
      .cls-1 {
        fill: #fff;
      }

      .cls-2 {
        fill: #1d1d1b;
      }
    </style>
  </defs>
  <g>
    <path class="cls-2" d="m259.09,56.14c.6,1.1,1.29,2.46,2.08,4.07.79,1.62,1.6,3.37,2.46,5.25.85,1.88,1.7,3.81,2.53,5.77.84,1.97,1.62,3.81,2.36,5.55.73-1.73,1.52-3.58,2.36-5.55.83-1.97,1.68-3.89,2.53-5.77.85-1.88,1.67-3.63,2.46-5.25.79-1.62,1.48-2.97,2.08-4.07h7.1c.33,2.3.64,4.87.92,7.72.28,2.85.53,5.81.75,8.9.22,3.08.42,6.17.6,9.27s.34,6.01.47,8.75h-7.6c-.1-3.36-.23-7.03-.4-10.99-.17-3.96-.42-7.96-.75-11.99-.6,1.4-1.27,2.95-2.01,4.65-.73,1.7-1.46,3.4-2.18,5.1-.72,1.7-1.41,3.32-2.08,4.87-.67,1.55-1.24,2.87-1.71,3.97h-5.45c-.47-1.1-1.04-2.42-1.71-3.97-.67-1.55-1.36-3.17-2.08-4.87-.72-1.7-1.45-3.4-2.18-5.1-.74-1.7-1.4-3.25-2.01-4.65-.33,4.03-.58,8.03-.75,11.99-.17,3.96-.3,7.63-.4,10.99h-7.6c.13-2.73.29-5.65.48-8.75.18-3.1.38-6.19.6-9.27.22-3.08.47-6.05.75-8.9.28-2.85.59-5.42.92-7.72h7.45Z"/>
    <path class="cls-2" d="m302.42,63.79c2.2,0,4.03.25,5.5.75,1.47.5,2.64,1.22,3.52,2.15.88.93,1.51,2.07,1.87,3.4.37,1.33.55,2.82.55,4.45v15.49c-1.07.23-2.55.51-4.45.82-1.9.32-4.2.47-6.9.47-1.7,0-3.24-.15-4.62-.45-1.38-.3-2.57-.79-3.57-1.47-1-.68-1.77-1.57-2.3-2.67-.53-1.1-.8-2.45-.8-4.05s.31-2.83.92-3.9c.62-1.07,1.44-1.92,2.47-2.55,1.03-.63,2.21-1.09,3.55-1.37,1.33-.28,2.71-.42,4.15-.42.97,0,1.82.04,2.57.12.75.08,1.36.19,1.82.32v-.7c0-1.27-.38-2.28-1.15-3.05-.77-.77-2.1-1.15-4-1.15-1.27,0-2.52.09-3.75.27-1.23.18-2.3.44-3.2.77l-.95-6c.43-.13.97-.27,1.62-.42.65-.15,1.36-.28,2.12-.4.77-.12,1.57-.22,2.42-.3.85-.08,1.71-.12,2.57-.12Zm.6,21.79c.73,0,1.43-.02,2.1-.05.67-.03,1.2-.08,1.6-.15v-5.65c-.3-.07-.75-.13-1.35-.2-.6-.07-1.15-.1-1.65-.1-.7,0-1.36.04-1.97.12-.62.08-1.16.24-1.62.48-.47.23-.83.55-1.1.95-.27.4-.4.9-.4,1.5,0,1.17.39,1.97,1.17,2.42.78.45,1.86.67,3.22.67Z"/>
    <path class="cls-2" d="m319.11,57.94l7.45-1.2v7.75h8.94v6.2h-8.94v9.24c0,1.57.27,2.82.82,3.75s1.66,1.4,3.32,1.4c.8,0,1.62-.07,2.47-.22s1.62-.36,2.32-.62l1.05,5.8c-.9.37-1.9.68-3,.95-1.1.27-2.45.4-4.05.4-2.03,0-3.72-.27-5.05-.82-1.33-.55-2.4-1.32-3.2-2.3-.8-.98-1.36-2.17-1.67-3.57-.32-1.4-.47-2.95-.47-4.65v-22.09Z"/>
    <path class="cls-2" d="m340.3,90.77v-37.58l7.45-1.2v12.59c.5-.17,1.14-.32,1.92-.47.78-.15,1.54-.23,2.27-.23,2.13,0,3.91.29,5.32.87,1.42.58,2.55,1.41,3.4,2.47.85,1.07,1.45,2.33,1.8,3.8.35,1.47.52,3.1.52,4.9v14.84h-7.45v-13.94c0-2.4-.31-4.1-.92-5.1s-1.76-1.5-3.42-1.5c-.67,0-1.29.06-1.87.17-.58.12-1.11.24-1.57.37v19.99h-7.45Z"/>
    <path class="cls-2" d="m367.23,77.83c0-2.33.36-4.37,1.07-6.12.72-1.75,1.66-3.21,2.82-4.37,1.17-1.17,2.51-2.05,4.02-2.65s3.07-.9,4.67-.9c3.73,0,6.68,1.14,8.84,3.42,2.17,2.28,3.25,5.64,3.25,10.07,0,.43-.02.91-.05,1.42-.03.52-.07.97-.1,1.37h-16.89c.17,1.53.88,2.75,2.15,3.65,1.27.9,2.96,1.35,5.1,1.35,1.37,0,2.71-.12,4.02-.37,1.32-.25,2.39-.56,3.22-.92l1,6.05c-.4.2-.93.4-1.6.6-.67.2-1.41.37-2.22.52s-1.69.27-2.62.38c-.93.1-1.87.15-2.8.15-2.37,0-4.42-.35-6.17-1.05-1.75-.7-3.2-1.66-4.35-2.87-1.15-1.22-2-2.66-2.55-4.32-.55-1.67-.82-3.46-.82-5.4Zm17.49-2.85c-.03-.63-.14-1.25-.32-1.85-.18-.6-.47-1.13-.85-1.6-.38-.47-.87-.85-1.45-1.15-.58-.3-1.31-.45-2.17-.45s-1.55.14-2.15.42c-.6.28-1.1.66-1.5,1.12-.4.47-.71,1.01-.92,1.62-.22.62-.38,1.24-.47,1.87h9.84Z"/>
    <path class="cls-2" d="m418.85,89.88c-1.27.37-2.9.71-4.9,1.02-2,.32-4.1.47-6.3.47s-4.09-.3-5.57-.9c-1.48-.6-2.66-1.44-3.52-2.52-.87-1.08-1.48-2.37-1.85-3.87-.37-1.5-.55-3.15-.55-4.95v-14.64h7.45v13.74c0,2.4.32,4.13.95,5.2.63,1.07,1.82,1.6,3.55,1.6.53,0,1.1-.02,1.7-.08.6-.05,1.13-.11,1.6-.17v-20.29h7.45v25.39Z"/>
    <path class="cls-2" d="m432.14,85.43c1.37,0,2.33-.13,2.9-.4.57-.27.85-.78.85-1.55,0-.6-.37-1.12-1.1-1.57-.73-.45-1.85-.96-3.35-1.52-1.17-.43-2.22-.88-3.17-1.35-.95-.47-1.76-1.02-2.42-1.67-.67-.65-1.18-1.42-1.55-2.32-.37-.9-.55-1.98-.55-3.25,0-2.46.92-4.41,2.75-5.85,1.83-1.43,4.35-2.15,7.55-2.15,1.6,0,3.13.14,4.6.42,1.47.28,2.63.59,3.5.92l-1.3,5.8c-.87-.3-1.81-.57-2.82-.8-1.02-.23-2.16-.35-3.42-.35-2.33,0-3.5.65-3.5,1.95,0,.3.05.57.15.8.1.23.3.46.6.67.3.22.71.45,1.22.7.52.25,1.17.53,1.97.83,1.63.6,2.98,1.2,4.05,1.79,1.07.59,1.91,1.22,2.52,1.9.62.68,1.05,1.44,1.3,2.27.25.83.38,1.79.38,2.89,0,2.59-.97,4.55-2.92,5.88-1.95,1.33-4.71,1.99-8.27,1.99-2.33,0-4.27-.2-5.82-.6-1.55-.4-2.62-.73-3.22-1l1.25-6.05c1.27.5,2.56.89,3.9,1.17,1.33.28,2.65.42,3.95.42Z"/>
    <path class="cls-2" d="m266.79,111.85c-3.63,0-6.25,1.01-7.87,3.02-1.62,2.02-2.42,4.77-2.42,8.27,0,1.7.2,3.24.6,4.62.4,1.38,1,2.57,1.8,3.57.8,1,1.8,1.77,3,2.32s2.6.83,4.2.83c.87,0,1.61-.02,2.22-.05.62-.03,1.16-.1,1.62-.2v-12.04h7.8v17.14c-.93.37-2.43.76-4.5,1.17-2.07.42-4.62.62-7.65.62-2.6,0-4.96-.4-7.07-1.2s-3.92-1.96-5.42-3.5c-1.5-1.53-2.66-3.41-3.47-5.65-.82-2.23-1.22-4.78-1.22-7.65s.45-5.46,1.35-7.7c.9-2.23,2.13-4.12,3.7-5.67,1.57-1.55,3.41-2.72,5.52-3.52s4.37-1.2,6.77-1.2c1.63,0,3.11.11,4.42.33s2.45.47,3.4.75c.95.28,1.73.58,2.35.88.62.3,1.06.53,1.32.7l-2.25,6.25c-1.07-.57-2.29-1.06-3.67-1.47-1.38-.42-2.89-.62-4.52-.62Z"/>
    <path class="cls-2" d="m299.07,120.79c-.67-.17-1.45-.34-2.35-.53-.9-.18-1.87-.27-2.9-.27-.47,0-1.02.04-1.67.12-.65.08-1.14.17-1.47.27v20.09h-7.45v-24.89c1.33-.47,2.91-.91,4.72-1.32,1.82-.42,3.84-.62,6.07-.62.4,0,.88.03,1.45.08.57.05,1.13.12,1.7.2.57.08,1.13.18,1.7.3.57.12,1.05.26,1.45.42l-1.25,6.15Z"/>
    <path class="cls-2" d="m311.21,106.6c0,1.37-.44,2.44-1.32,3.22-.88.78-1.92,1.17-3.12,1.17s-2.24-.39-3.12-1.17c-.88-.78-1.32-1.86-1.32-3.22s.44-2.44,1.32-3.22c.88-.78,1.92-1.17,3.12-1.17s2.24.39,3.12,1.17c.88.78,1.32,1.86,1.32,3.22Zm-.7,33.88h-7.45v-26.29h7.45v26.29Z"/>
    <path class="cls-2" d="m315.01,127.54c0-2.33.36-4.37,1.07-6.12.72-1.75,1.66-3.21,2.82-4.37,1.17-1.17,2.51-2.05,4.02-2.65s3.07-.9,4.67-.9c3.73,0,6.68,1.14,8.84,3.42,2.17,2.28,3.25,5.64,3.25,10.07,0,.43-.02.91-.05,1.42-.03.52-.07.97-.1,1.37h-16.89c.17,1.53.88,2.75,2.15,3.65,1.27.9,2.96,1.35,5.1,1.35,1.37,0,2.71-.12,4.02-.38,1.32-.25,2.39-.56,3.22-.92l1,6.05c-.4.2-.93.4-1.6.6-.67.2-1.41.38-2.22.52-.82.15-1.69.28-2.62.38-.93.1-1.87.15-2.8.15-2.37,0-4.42-.35-6.17-1.05-1.75-.7-3.2-1.66-4.35-2.87-1.15-1.21-2-2.66-2.55-4.32-.55-1.67-.82-3.46-.82-5.4Zm17.49-2.85c-.03-.63-.14-1.25-.32-1.85-.18-.6-.47-1.13-.85-1.6-.38-.47-.87-.85-1.45-1.15-.58-.3-1.31-.45-2.17-.45s-1.55.14-2.15.42-1.1.66-1.5,1.12c-.4.47-.71,1.01-.92,1.62-.22.62-.38,1.24-.47,1.87h9.84Z"/>
    <path class="cls-2" d="m366.88,137.18c0,4.3-1.09,7.49-3.27,9.57-2.18,2.08-5.56,3.12-10.12,3.12-1.6,0-3.2-.14-4.8-.42-1.6-.28-3.08-.66-4.45-1.12l1.3-6.25c1.17.47,2.39.83,3.67,1.1,1.28.27,2.74.4,4.37.4,2.13,0,3.64-.47,4.52-1.4.88-.93,1.32-2.13,1.32-3.6v-.95c-.8.37-1.62.64-2.47.83-.85.18-1.77.27-2.77.27-3.63,0-6.41-1.07-8.34-3.22-1.93-2.15-2.9-5.16-2.9-9.02,0-1.93.3-3.69.9-5.27s1.47-2.94,2.62-4.07c1.15-1.13,2.56-2.01,4.22-2.62s3.55-.92,5.65-.92c.9,0,1.82.04,2.77.12.95.08,1.89.19,2.82.33.93.13,1.82.29,2.67.47.85.18,1.61.38,2.27.57v22.09Zm-16.34-10.69c0,4.17,1.68,6.25,5.05,6.25.77,0,1.48-.1,2.15-.3.67-.2,1.23-.43,1.7-.7v-11.89c-.37-.07-.8-.12-1.3-.18-.5-.05-1.08-.07-1.75-.07-1.97,0-3.43.65-4.4,1.95-.97,1.3-1.45,2.95-1.45,4.95Z"/>
    <path class="cls-2" d="m371.38,127.54c0-2.33.36-4.37,1.07-6.12.72-1.75,1.66-3.21,2.82-4.37,1.17-1.17,2.51-2.05,4.02-2.65s3.07-.9,4.67-.9c3.73,0,6.68,1.14,8.84,3.42,2.17,2.28,3.25,5.64,3.25,10.07,0,.43-.02.91-.05,1.42-.03.52-.07.97-.1,1.37h-16.89c.17,1.53.88,2.75,2.15,3.65,1.27.9,2.96,1.35,5.1,1.35,1.37,0,2.71-.12,4.02-.38,1.32-.25,2.39-.56,3.22-.92l1,6.05c-.4.2-.93.4-1.6.6-.67.2-1.41.38-2.22.52-.82.15-1.69.28-2.62.38-.93.1-1.87.15-2.8.15-2.37,0-4.42-.35-6.17-1.05-1.75-.7-3.2-1.66-4.35-2.87-1.15-1.21-2-2.66-2.55-4.32-.55-1.67-.82-3.46-.82-5.4Zm17.49-2.85c-.03-.63-.14-1.25-.32-1.85-.18-.6-.47-1.13-.85-1.6-.38-.47-.87-.85-1.45-1.15-.58-.3-1.31-.45-2.17-.45s-1.55.14-2.15.42-1.1.66-1.5,1.12c-.4.47-.71,1.01-.92,1.62-.22.62-.38,1.24-.47,1.87h9.84Z"/>
    <path class="cls-2" d="m416.4,120.79c-.67-.17-1.45-.34-2.35-.53-.9-.18-1.87-.27-2.9-.27-.47,0-1.02.04-1.67.12-.65.08-1.14.17-1.47.27v20.09h-7.45v-24.89c1.33-.47,2.91-.91,4.72-1.32,1.82-.42,3.84-.62,6.07-.62.4,0,.88.03,1.45.08.57.05,1.13.12,1.7.2.57.08,1.13.18,1.7.3.57.12,1.05.26,1.45.42l-1.25,6.15Z"/>
    <path class="cls-2" d="m425.8,138.33c0,.77-.24,1.42-.72,1.95-.48.53-1.16.8-2.02.8s-1.54-.27-2.02-.8c-.48-.53-.72-1.18-.72-1.95s.24-1.42.72-1.95c.48-.53,1.16-.8,2.02-.8s1.54.27,2.02.8c.48.53.72,1.18.72,1.95Z"/>
    <path class="cls-2" d="m452.78,139.68c-.97.33-2.2.65-3.7.95-1.5.3-3.4.45-5.7.45-1.9,0-3.62-.31-5.17-.92-1.55-.62-2.88-1.51-4-2.67-1.12-1.17-1.98-2.58-2.6-4.25-.62-1.67-.92-3.55-.92-5.65,0-1.96.26-3.77.78-5.42.52-1.65,1.27-3.07,2.27-4.27,1-1.2,2.22-2.13,3.67-2.8,1.45-.67,3.11-1,4.97-1,1.7,0,3.17.24,4.42.72,1.25.48,2.16.94,2.72,1.37v-13.89l3.25-.6v37.98Zm-3.25-20.34c-.3-.23-.67-.48-1.12-.75-.45-.27-.97-.52-1.57-.75-.6-.23-1.25-.42-1.95-.58-.7-.15-1.43-.22-2.2-.22-1.6,0-2.94.28-4.02.85-1.08.57-1.96,1.32-2.62,2.27-.67.95-1.15,2.07-1.45,3.35s-.45,2.64-.45,4.07c0,3.4.85,6,2.55,7.82,1.7,1.82,3.95,2.72,6.75,2.72,1.6,0,2.89-.08,3.87-.22.98-.15,1.72-.31,2.22-.47v-18.09Z"/>
    <path class="cls-2" d="m458.58,127.54c0-2.27.33-4.24.97-5.92.65-1.68,1.5-3.09,2.55-4.22,1.05-1.13,2.25-1.97,3.6-2.52,1.35-.55,2.74-.82,4.17-.82,3.17,0,5.69,1.03,7.57,3.1,1.88,2.07,2.82,5.25,2.82,9.54,0,.27,0,.53-.02.8-.02.27-.04.52-.08.75h-18.14c.1,3.17.88,5.6,2.35,7.3s3.8,2.55,7,2.55c1.77,0,3.17-.17,4.2-.5,1.03-.33,1.78-.62,2.25-.85l.6,2.8c-.47.27-1.34.58-2.62.95-1.28.37-2.79.55-4.52.55-2.27,0-4.2-.33-5.8-1-1.6-.67-2.92-1.6-3.95-2.8s-1.78-2.62-2.25-4.27c-.47-1.65-.7-3.46-.7-5.42Zm18.34-2.05c-.07-2.7-.7-4.8-1.9-6.3-1.2-1.5-2.9-2.25-5.1-2.25-1.17,0-2.21.23-3.12.7-.92.47-1.72,1.09-2.4,1.87-.68.78-1.22,1.69-1.6,2.72s-.61,2.12-.67,3.25h14.79Z"/>
    <path class="cls-2" d="m494.08,136.98c.7-1.43,1.42-3.07,2.16-4.92.74-1.85,1.45-3.76,2.13-5.75.68-1.98,1.32-3.98,1.9-6s1.08-3.91,1.48-5.67h3.25c-.6,2.37-1.27,4.7-2.01,7-.74,2.3-1.52,4.55-2.34,6.75-.82,2.2-1.68,4.31-2.56,6.35-.89,2.03-1.75,3.95-2.59,5.75h-3.03c-.87-1.8-1.74-3.71-2.62-5.75-.87-2.03-1.72-4.15-2.54-6.35-.82-2.2-1.6-4.45-2.34-6.75s-1.41-4.63-2.01-7h3.45c.4,1.77.89,3.66,1.48,5.67.58,2.02,1.22,4.01,1.9,6,.69,1.98,1.4,3.9,2.13,5.75.74,1.85,1.45,3.49,2.16,4.92Z"/>
  </g>
  <g>
    <path class="cls-2" d="m214.44,50.49h-7.62v-7.62l-19.04-19.04-39.19,30.46h-36.97l-39.19,30.46-54.96,30.47,36.65,16.81h-18.23l-30.89,44.12h182.78v-60.93l30.46-60.93-3.81-3.81Z"/>
    <polygon class="cls-1" points="118.88 69.54 142.09 69.54 120.33 84.77 97.13 84.77 118.88 69.54"/>
  </g>
</svg>